<svg xmlns="http://www.w3.org/2000/svg" viewBox="0 0 96 96" role="img" aria-labelledby="t d"><title id="t">Teschio — IN CORSO</title><desc id="d">Sigillo a teschio con brace interna per gli eventi in corso.</desc><defs><linearGradient id="g" x1="0" y1="0" x2="0" y2="1"><stop stop-color="#e0c47e"/><stop offset="1" stop-color="#8a642b"/></linearGradient><radialGradient id="ember"><stop stop-color="#f4b35b"/><stop offset=".45" stop-color="#a84a24"/><stop offset="1" stop-color="#3b1711" stop-opacity="0"/></radialGradient></defs><circle cx="48" cy="45" r="30" fill="url(#ember)" opacity=".25"/><g fill="none" stroke="url(#g)" stroke-width="3" stroke-linecap="round" stroke-linejoin="round"><path d="M27 58c-6-6-9-14-9-24C18 18 30 8 48 8s30 10 30 26c0 10-3 18-9 24l-4 4v13l-8 7-9-6-9 6-8-7V62z" fill="#171a1d"/><path d="M31 45l10-4 5 7-7 7-8-3zm34 0l-10-4-5 7 7 7 8-3z" fill="#3f1e14"/><path d="M48 50l-5 8h10z"/><path d="M36 65h24M39 72v7M48 70v7M57 72v7"/></g><circle cx="38" cy="48" r="4" fill="#c45e2b" opacity=".75"/><circle cx="58" cy="48" r="4" fill="#c45e2b" opacity=".75"/><path d="M48 3l3 4-3 4-3-4z" fill="#c09a55"/></svg>