<svg xmlns="http://www.w3.org/2000/svg" viewBox="0 0 96 96" fill="none"><g transform="translate(96 96) scale(-1 -1)"><path d="M6 90V28C6 15.85 15.85 6 28 6h62" stroke="#C9A35F" stroke-width="2"/><path d="M14 82V31c0-9.39 7.61-17 17-17h51" stroke="#7B5C2E" stroke-width="1.5"/><path d="M27 6c0 9.39-7.61 17-17 17M43 6c0 20.43-16.57 37-37 37" stroke="#C9A35F" stroke-width="1.5" opacity=".8"/><path d="M23 23l10-4 4-10 4 10 10 4-10 4-4 10-4-10-10-4Z" stroke="#D9BD7C" stroke-width="1.4"/><circle cx="37" cy="23" r="2.5" fill="#C9A35F"/><path d="M6 61h12M61 6v12" stroke="#8F6A33" stroke-width="1.4"/></g></svg>